<svg xmlns="http://www.w3.org/2000/svg" id="a" viewBox="47.98 47.98 525.87 169.98"><defs><style>.b{fill:#003865;}.c{fill:#00a9ab;}.d{fill:#ff9230;}</style></defs><path class="b" d="M293.89,130.04c-14.2,0-23.9-11.42-23.9-24.95s9.69-24.95,23.9-24.95c5.66,0,10.65,1.92,14.01,5.37v-4.41h10.56v47.98h-10.56v-4.51c-3.36,3.55-8.35,5.47-14.01,5.47Zm1.25-9.6c6.14,0,10.27-2.88,12.76-6.72v-17.37c-2.5-3.74-6.62-6.62-12.76-6.62-8.45,0-14.3,6.91-14.3,15.35s5.85,15.35,14.3,15.35Z"/><path class="b" d="M326.51,59.02h10.56v70.06h-10.56V59.02Z"/><path class="b" d="M387.13,129.08h-10.56v-4.99c-3.17,4.03-8.45,5.95-13.24,5.95-11.32,0-18.62-7.87-18.62-20.25v-28.69h10.56v26.97c0,7.58,3.74,12.38,10.36,12.38,4.89,0,8.92-3.07,10.94-7.58v-31.76h10.56v47.98Z"/><path class="b" d="M417.86,80.14c12.57,0,23.13,8.35,23.13,23.8,0,1.06,0,1.92-.1,3.46h-37.71c.48,7.87,6.81,13.05,14.78,13.05,6.72,0,11.23-3.07,13.72-7.29l8.06,5.76c-4.32,6.81-11.8,11.13-21.88,11.13-14.59,0-25.05-10.36-25.05-24.95s10.46-24.95,25.05-24.95Zm-14.2,19.58h26.68c-1.15-6.91-6.72-10.65-12.86-10.65s-12.38,3.55-13.82,10.65Z"/><path class="c" d="M247.95,150.4c5.66,0,10.65,1.92,14.01,5.37v-26.49h10.56v70.06h-10.56v-4.51c-3.36,3.55-8.35,5.47-14.01,5.47-14.2,0-23.9-11.42-23.9-24.95s9.69-24.95,23.9-24.95Zm14.01,16.22c-2.5-3.74-6.62-6.62-12.76-6.62-8.44,0-14.3,6.91-14.3,15.35s5.86,15.35,14.3,15.35c6.14,0,10.27-2.88,12.76-6.72v-17.37Z"/><path class="c" d="M286.44,217.96l9.6-21.21-20.63-45.39h11.61l14.78,33.97,14.68-33.97h11.71l-30.13,66.6h-11.61Z"/><path class="c" d="M330.77,151.36h10.56v5.09c3.26-4.03,8.45-6.04,14.11-6.04,11.52,0,18.81,7.87,18.81,20.25v28.69h-10.56v-26.97c0-7.58-3.84-12.38-10.56-12.38-5.66,0-9.79,3.17-11.8,7.58v31.76h-10.56v-47.98Z"/><path class="c" d="M403.16,200.3c-14.2,0-23.9-11.42-23.9-24.95s9.69-24.95,23.9-24.95c5.66,0,10.65,1.92,14.01,5.37v-4.41h10.56v47.98h-10.56v-4.51c-3.36,3.55-8.35,5.47-14.01,5.47Zm1.25-9.6c6.14,0,10.27-2.88,12.76-6.72v-17.37c-2.5-3.74-6.62-6.62-12.76-6.62-8.44,0-14.3,6.91-14.3,15.35s5.86,15.35,14.3,15.35Z"/><path class="c" d="M495.1,172.57c0-7.49-3.17-12.48-9.6-12.48-4.99,0-8.92,3.07-10.65,7.58,.19,1.05,.29,2.01,.29,3.07v28.6h-10.56v-26.77c0-7.49-3.26-12.48-9.69-12.48-4.7,0-8.64,2.78-10.36,6.81v32.44h-10.56v-47.98h10.56v4.51c2.88-3.65,7.97-5.47,12.76-5.47,5.76,0,10.65,2.59,13.82,7.1,3.36-4.61,9.31-7.1,15.84-7.1,12.38,0,18.71,8.54,18.71,20.34v28.6h-10.56v-26.77Z"/><path class="c" d="M526.86,175.45l-18.04-24.09h12.57l12.09,16.12,12.09-16.12h12.67l-18.04,24.09,33.65,42.01h-12.76l-27.51-34.33-12.96,16.22h-12.86l19.1-23.9Z"/><polygon class="b" points="258.89 81.1 246.13 111.9 233.31 81.1 221.09 81.1 241.23 129.08 251.02 129.08 271.16 81.1 258.89 81.1"/><polygon class="c" points="63.9 92.32 73.17 101.09 198.2 64.18 167.48 190.36 177.21 199.57 214.12 47.98 63.9 92.32"/><polygon class="d" points="154.92 193.36 70.64 113.59 82.63 110.05 73.17 101.09 47.98 108.52 161.29 215.77 167.48 190.36 157.86 181.26 154.92 193.36"/><polygon class="b" points="182.37 80.61 82.63 110.05 157.86 181.26 182.37 80.61"/></svg>